/* XPM */
static char *calxvig[] = {
/* columns rows colors chars-per-pixel */
"48 35 2 1",
"  c opaque",
". c white",
/* pixels */
"                                                ",
"            ...................                 ",
"            ....................                ",
"            .....................               ",
"            ......................              ",
"            ....            .......             ",
"            .... ........... .......            ",
"            .... ............ ......            ",
"            .... ............. .....            ",
"            .... .............. ....            ",
"            .... .............. ....            ",
"            .... .............. ....            ",
"            .... .............. ....            ",
"            .... .............. ....            ",
"            .... .............. ....            ",
"            .... .............. ....            ",
"            .... .............. ....            ",
"            .... .............. ....            ",
"            .... .............. ....            ",
"            .... .............. ....            ",
"            ....                ....            ",
"            ........................            ",
"            ....   .. ....  ..   ...            ",
"            .... .. . ... .. .. ....            ",
"            ....   .. ... .. .. ....            ",
"            .... .... ... .. .. ....            ",
"            .... ....   ..  ... ....            ",
"            ........................            ",
"            .... .. ..........  ....            ",
"            .... .. ....... . .. ...            ",
"            .....  ... . .... ......            ",
"            .....  ... . .. . .  ...            ",
"            .... .. .. . .. . .. ...            ",
"            .... .. ... ... ..  ....            ",
"            ........................            "
};
